<svg width="288" height="235" fill="none" xmlns="http://www.w3.org/2000/svg"><g clip-path="url(#a)"><g clip-path="url(#b)"><path d="M56.858 217.321c31.126 0 56.358-14.536 56.358-32.467 0-17.931-25.232-32.467-56.358-32.467C25.732 152.387.5 166.923.5 184.854c0 17.931 25.232 32.467 56.358 32.467Z" fill="#000"/><path d="M48.209 206.136c26.275 0 47.576-12.27 47.576-27.407 0-15.136-21.3-27.407-47.576-27.407S.633 163.593.633 178.729c0 15.137 21.3 27.407 47.576 27.407Z" fill="#FDDAA4"/><path d="M52.48 199.078c21.838 0 39.542-10.195 39.542-22.77 0-12.576-17.704-22.771-39.543-22.771-21.838 0-39.542 10.195-39.542 22.771 0 12.575 17.703 22.77 39.542 22.77Z" fill="#000"/><path d="M95.785 178.729c0 15.131-21.303 27.406-47.576 27.406S.645 193.873.645 178.729v7.662c0 15.132 21.303 27.407 47.576 27.407s47.576-12.275 47.576-27.407v-7.662h-.012Z" fill="#FAA11B"/><path d="M48.221 202.869c-24.403 0-44.259-10.835-44.259-24.139 0-13.304 19.856-24.138 44.26-24.138 24.402 0 44.258 10.834 44.258 24.138 0 13.304-19.856 24.139-44.259 24.139Zm0-47.454c-23.945 0-43.426 10.459-43.426 23.315 0 12.856 19.481 23.315 43.426 23.315s43.427-10.459 43.427-23.315c0-12.856-19.482-23.315-43.427-23.315Z" fill="#FAA11B"/><path d="M48.221 57.662c-24.403 0-44.259-10.823-44.259-24.139 0-13.316 19.856-24.138 44.26-24.138 24.402 0 44.258 10.834 44.258 24.138 0 13.304-19.856 24.139-44.259 24.139Zm0-47.454c-23.957 0-43.439 10.46-43.439 23.315 0 12.856 19.482 23.316 43.427 23.316s43.427-10.46 43.427-23.316c0-12.856-19.47-23.315-43.415-23.315Zm43.427 168.533v-.012h.82l-.82.012Zm-87.686 0v-.012h.82l-.82.012Z" fill="#D268CC"/><path opacity=".3" d="M48.221 154.591c21.484 0 39.434 8.389 43.427 19.478v-20.761c-.12-13.389-7.648-26.112-19.65-33.182l-12.076-6.525c-2.497-1.343-3.993-3.861-3.993-6.73s1.496-5.387 3.993-6.731l12.087-6.525c12.112-6.537 19.639-19.26 19.639-33.169V38.172c-3.981 11.15-22.063 19.49-43.427 19.49-21.363 0-39.446-8.34-43.439-19.49v22.262c0 13.921 7.528 26.632 19.639 33.17l12.087 6.524c2.497 1.344 3.993 3.862 3.993 6.731 0 2.869-1.496 5.387-3.993 6.73l-12.087 6.525c-12.111 6.537-19.639 19.26-19.639 33.169v20.761c3.993-11.088 21.943-19.477 43.427-19.477l.012.024Z" fill="#000"/><path d="M91.793 178.74h-.145c0 .279-.024.569-.036.848.072-.279.132-.569.193-.848h-.013Zm-.145-4.672s-.024-.073-.049-.109c-.048-.133-.108-.266-.156-.399a12.01 12.01 0 0 0-.302-.703l-.217-.435c-.109-.218-.217-.436-.338-.654a14.946 14.946 0 0 1-.253-.448c-.12-.206-.254-.424-.386-.629l-.29-.436a20.854 20.854 0 0 0-.458-.63 14.757 14.757 0 0 0-.869-1.077c-.096-.109-.193-.23-.29-.339-.289-.327-.59-.654-.916-.968-.036-.037-.084-.073-.12-.122-.29-.278-.58-.569-.893-.847a11.11 11.11 0 0 0-.386-.339c-.23-.194-.459-.399-.7-.593-.157-.121-.314-.254-.47-.375-.23-.182-.459-.351-.688-.533l-.519-.375c-.229-.17-.47-.339-.711-.497l-.543-.363c-.253-.157-.507-.327-.772-.484-.181-.109-.374-.23-.567-.339a19.733 19.733 0 0 0-.857-.484c-.18-.097-.35-.206-.53-.303-.35-.193-.724-.375-1.086-.569-.12-.06-.241-.133-.362-.193-.495-.243-.99-.473-1.496-.703-.169-.072-.35-.157-.53-.23-.35-.157-.7-.302-1.05-.447l-.651-.255c-.326-.133-.652-.254-.99-.387-.229-.085-.47-.17-.7-.254-.325-.121-.663-.23-.988-.351a16.2 16.2 0 0 0-.736-.242 106.07 106.07 0 0 0-1.026-.327c-.24-.073-.494-.146-.736-.218-.361-.109-.735-.206-1.097-.303-.241-.06-.47-.133-.712-.193a40.571 40.571 0 0 0-1.29-.315c-.194-.049-.375-.097-.568-.133a97.408 97.408 0 0 0-1.881-.412 5.12 5.12 0 0 1-.435-.085 56.064 56.064 0 0 0-1.508-.278 14.69 14.69 0 0 1-.711-.121c-.422-.073-.845-.133-1.267-.194-.265-.036-.53-.073-.808-.109-.41-.048-.808-.109-1.218-.157-.278-.037-.567-.061-.845-.097-.41-.048-.82-.085-1.23-.121a239.59 239.59 0 0 0-.857-.073c-.422-.036-.856-.06-1.278-.084-.278-.013-.543-.037-.82-.049a55.313 55.313 0 0 0-1.436-.06c-.23 0-.459-.025-.688-.025-.712-.024-1.423-.024-2.147-.024-.724 0-1.435 0-2.147.024-.23 0-.459.012-.688.025-.482.012-.953.036-1.435.06-.278.012-.543.036-.82.049-.435.024-.857.06-1.28.084l-.856.073c-.41.036-.82.073-1.23.121-.278.024-.567.06-.845.097-.41.048-.82.097-1.218.157l-.808.109a.71.71 0 0 0-.157.024 51.811 51.811 0 0 0-6.743 2.167c5.549-1.38 11.713-2.155 18.227-2.155 23.945 0 43.427 10.46 43.427 23.316h.144c.145-.799.23-1.598.23-2.421 0-1.054-.133-2.083-.374-3.087v.859-.012Z" fill="#7C252B"/><path d="M51.936 135.124a7.43 7.43 0 0 0-7.443 0c-9.843 5.641-35.815 21.439-35.815 31.026 0 11.815 17.697 21.391 39.543 21.391s39.542-9.576 39.542-21.391c0-9.575-25.971-25.373-35.815-31.026h-.012Z" fill="#F4EDE4"/><path d="M48.209 187.541c-21.834 0-39.543-9.576-39.543-21.391v10.847c0 11.815 17.709 21.39 39.543 21.39s39.53-9.575 39.542-21.39V166.15c0 11.815-17.696 21.391-39.542 21.391Z" fill="#B69B86"/><path d="M49.982 126.409c0-.993-.796-1.792-1.761-1.792-.965 0-1.761.799-1.761 1.792 0 .992.796 1.791 1.76 1.791.966 0 1.762-.799 1.762-1.791Z" fill="#F3CFB2"/><path d="M48.209 56.39c21.838 0 39.542-9.577 39.542-21.39 0-11.814-17.704-21.39-39.542-21.39C26.37 13.61 8.666 23.185 8.666 35c0 11.813 17.704 21.39 39.543 21.39Z" fill="#D268CC"/><path d="m44.964 113.238-7.684 6.537c-7.769 6.597-12.63 19.49-12.63 33.532v44.73c-2.497-.872-4.825-1.864-6.948-2.978v-41.752c0-14.042 5.549-26.935 14.451-33.532l8.794-6.537c3.655-2.712 3.655-10.024 0-12.735l-8.794-6.537c-8.902-6.598-14.451-19.502-14.451-33.545v-25.41h6.948v25.422c0 14.043 4.861 26.947 12.63 33.545l7.684 6.537c3.197 2.711 3.197 10.011 0 12.735v-.012Z" fill="#fff" style="mix-blend-mode:overlay" opacity=".5"/><path d="M48.209 60.93c26.275 0 47.576-12.271 47.576-27.408 0-15.136-21.3-27.407-47.576-27.407S.633 18.385.633 33.522s21.3 27.407 47.576 27.407Z" fill="#F2606A"/><path d="M95.785 33.522c0 15.131-21.303 27.406-47.576 27.406S.645 48.653.645 33.522v7.662c0 15.132 21.303 27.407 47.576 27.407s47.576-12.275 47.576-27.407v-7.662h-.012Z" fill="#fff"/><path d="M48.209 60.93c26.275 0 47.576-12.271 47.576-27.408 0-15.136-21.3-27.407-47.576-27.407S.633 18.385.633 33.522s21.3 27.407 47.576 27.407Z" fill="#FEECD1"/><path d="M95.785 33.522c0 15.131-21.303 27.406-47.576 27.406S.645 48.653.645 33.522v7.662c0 15.132 21.303 27.407 47.576 27.407s47.576-12.275 47.576-27.407v-7.662h-.012Z" fill="#FAA11B"/><path d="M52.105 51.063c21.839 0 39.543-10.2 39.543-22.782 0-12.583-17.704-22.783-39.543-22.783-21.838 0-39.542 10.2-39.542 22.783 0 12.582 17.704 22.782 39.542 22.782Z" fill="#000"/><path d="M48.209 46.051c21.838 0 39.542-10.2 39.542-22.782S70.047.486 48.21.486c-21.84 0-39.544 10.2-39.544 22.784 0 12.58 17.704 22.78 39.544 22.78Z" fill="#FEECD1"/><path d="M87.751 23.27c0 12.577-17.696 22.782-39.542 22.782S8.679 35.86 8.679 23.27v6.367c0 12.578 17.696 22.77 39.542 22.77s39.542-10.192 39.542-22.77V23.27h-.012Z" fill="#FAA11B"/></g><g filter="url(#c)"><rect x="83.263" y="67.865" width="204" height="50" rx="8.845" fill="#fff" shape-rendering="crispEdges"/><g clip-path="url(#d)"><rect x="96.53" y="76.834" width="32.063" height="32.063" rx="3.593" fill="#FED4BE"/><path d="M124.502 102.81c-.709 2.201-1.796 2.201-2.811 2.372-15.514 3.189-19.036-.449-19.422-.171-1.671-1.32.17-4.06.323-4.392a3.193 3.193 0 0 1-.744-.992 3.189 3.189 0 0 1-.307-1.2 3.078 3.078 0 0 1 .306-1.546c-1.258-.898-1.195-3.79.161-4.635 1.213-.763-2.263-4.492 1.572-6.594 4.492-2.515 1.42-4.258 4.492-5.848a4.609 4.609 0 0 1 4.492.117c1.419-.746 3.404-1.357 5.165-.341a5.65 5.65 0 0 1 1.563 1.275 3.16 3.16 0 0 1 2.992 2.075c.26.702.26 1.473 0 2.174l.188.09c2.525 1.195-.467 3.225 1.312 4.618 1.949 1.527-1.123 2.057.781 4.491a4.614 4.614 0 0 1-.242 5.21c.521.522.431 2.507.179 3.297Z" fill="#000"/><path d="M113.794 106.188v.162a3.594 3.594 0 0 0 3.594-3.594v-9.432a3.593 3.593 0 0 0-3.594-3.593v.161a3.426 3.426 0 0 0-3.309 2.062 3.432 3.432 0 0 0-.284 1.343v9.522a3.438 3.438 0 0 0 1.084 2.445 3.436 3.436 0 0 0 2.509.924Z" fill="#C76C61"/><path d="m110.552 94.923 1.015 3.594c.521 2.066 2.425 2.803 4.437 2.803h1.375v-6.558l-6.827.161Z" fill="#703D37"/><path d="M109.374 91.024c-.044 4.806 3.243 8.813 8.517 8.696a2.473 2.473 0 0 0 2.245-1.455c.755-1.797 1.797-4.06 1.285-6.019a18.401 18.401 0 0 1-.081-2.614.486.486 0 0 1 0-.108c0-.18-.072-.368-.117-.557-.386-1.733-1.167-3.17-2.407-3.728-.665-.323-1.797-1.168-2.947-1.14a6.497 6.497 0 0 0-6.495 6.925Z" fill="#C76C61"/><path d="M121.116 87.234a7.572 7.572 0 0 1-6.369-2.848 2.766 2.766 0 0 1-1.698 3.028c-2.183 1.14-2.039 2.066-2.273 3.09-.234 1.024-1.725.898-1.725.898s-.494-2.973.494-4.797a6.296 6.296 0 0 1 5.642-3.135c2.65-.036 5.129.952 5.929 3.764Z" fill="#000"/><path d="m106.742 92.346.045.153.045.153a3.08 3.08 0 0 0 1.482 1.86c.124.073.253.136.387.188.5.19 1.041.253 1.572.18l.413-.09-.97-3.297a1.554 1.554 0 0 0-2.974.898v-.045Z" fill="#C76C61"/><path d="M107.766 92.192c.072-1.446 1.186-.494 1.186-.494l-.898.387a2.003 2.003 0 0 0 .898 1.841c-1.266-.135-1.186-1.734-1.186-1.734Z" fill="#703D37"/><path d="M119.427 95.857s-.314-.413-.656-.314c-.341.099-.224.26-.665 0-.44-.26-.898.26-1.365.36-.467.098.063.412.251.601a1.683 1.683 0 0 0 1.231.395.997.997 0 0 0 1.105-.772s.153.09.099-.27Z" fill="#921D21"/><path d="M118.421 96.486c.445.026.888-.087 1.266-.323a.167.167 0 0 0 .044-.106.172.172 0 0 0-.127-.174.171.171 0 0 0-.114.01c-.898.629-2.983-.072-3.001-.08a.179.179 0 0 0-.215.098.17.17 0 0 0 .108.216 7.428 7.428 0 0 0 2.039.359Z" fill="#450709"/><path d="M117.262 94.213s-.252.08-.252-.09c0-.17.566-.422.827-.575a.618.618 0 0 1 .746 0c.224.198.548-.162.754-.126.207.036-.063.62-.26.701-.198.081-.225.207-.476.207-.611.009-.584-.17-1.339-.117Z" fill="#703D37"/><path d="M113.642 90.772c.235-.144.489-.255.754-.332.267-.078.541-.129.818-.153h.368c.157.002.313.017.467.045.14.03.276.079.404.144a.79.79 0 0 1 .324.27 1.86 1.86 0 0 0-.764-.117h-.045a.39.39 0 0 1 0 .18.54.54 0 0 1-1.078 0 .486.486 0 0 1 0-.109h-.476a3.368 3.368 0 0 1-.772.072Zm6.477-.549c.193-.027.39-.027.583 0 .201.025.394.093.566.198-.197.054-.377.08-.566.117h-.089c.009.06.009.12 0 .18a.489.489 0 0 1-.28.507.488.488 0 0 1-.666-.303.489.489 0 0 1-.016-.205.166.166 0 0 1 0-.063h-.071a4.087 4.087 0 0 1-.575 0c.147-.131.318-.235.503-.305.197-.068.402-.11.611-.126Zm-2.866-.51a.36.36 0 0 0-.279-.413l-.808-.135-.575-.09a5.632 5.632 0 0 0-.611-.08 2.121 2.121 0 0 0-1.222.35 6.544 6.544 0 0 0-.952.71 5.373 5.373 0 0 0 1.114-.413 1.725 1.725 0 0 1 1.024-.18l.261.063.278.063.575.135.898.197a.265.265 0 0 0 .202-.036.273.273 0 0 0 .074-.074.279.279 0 0 0 .039-.097h-.018Zm1.662.127a.154.154 0 0 1-.181-.055.155.155 0 0 1 .01-.188 2.695 2.695 0 0 1 1.86-.728c.374.04.73.187 1.024.422a.1.1 0 0 1-.081.17 2.894 2.894 0 0 0-1.042-.134 7.445 7.445 0 0 0-1.59.512Zm-1.509 4.274s.431-.431.7-.315c.413.171-.036.369-.7.315Zm1.311.009s.27-.342.431-.342c.162 0-.036.35-.431.342Z" fill="#000"/><path d="M120.469 105.379s2.291-1.105 3.647 1.563c1.357 2.668 3.917 17.446 2.938 19.701a3.105 3.105 0 0 1-3.701 1.997 3.104 3.104 0 0 1-1.339-.731c-1.851-1.464-4.671-11.759-4.644-15.927.027-4.168 1.877-5.992 3.099-6.603Z" fill="#71A3B0"/><path d="M97.256 112.592a3.162 3.162 0 0 0 3.378 3.378s.997 10.6.79 11.993a2.788 2.788 0 0 0 .836 2.776h20.338a3.899 3.899 0 0 0 1.213-3.234 22.406 22.406 0 0 1-.18-2.929c0-2.389.251-5.578 1.347-7.734 1.096-2.156-.395-5.319-.628-7.187-.234-1.869-.144-3.342-1.438-4.186-1.859-1.204-5.498-3.836-5.498-3.836h-7.186l-9.522 4.186c-1.725.71-3.522 4.105-3.45 6.773Z" fill="#96DAEA"/><path d="M110.228 101.543c.898 2.605 2.219 4.797 3.863 4.797h3.315c1.653 0 .844-2.165-.054-4.779" fill="#C76C61"/><path d="M100.697 105.928a2.695 2.695 0 0 1 3.521 1.572c1.177 2.542 2.794 16.457 1.68 18.551a3.218 3.218 0 0 1-2.298 1.834 3.218 3.218 0 0 1-1.511-.055 3.218 3.218 0 0 1-1.321-.737c-1.742-1.429-3.898-11.158-3.593-15.056.306-3.899 2.264-5.57 3.522-6.109Z" fill="#96DAEA"/><path d="M124.584 75.543h-23.939c-2.69 0-4.872 2.244-4.872 5.011v24.623c0 2.767 2.182 5.011 4.872 5.011h23.939c2.691 0 4.872-2.244 4.872-5.011V80.554c0-2.767-2.181-5.011-4.872-5.011Z" fill="#7C2852"/><path d="m103.099 101.993.367-.204a9.506 9.506 0 0 1 4.589-1.183h9.24c1.651 0 3.274.417 4.72 1.219l.309.172c.725.403 1.401.875 2.017 1.4l-1.754-14.69c0-5.341-4.33-9.668-9.676-9.668s-9.676 4.327-9.676 9.669l-1.705 14.322c.494-.38 1.02-.729 1.578-1.037h-.009Z" fill="#FA7598"/><mask id="e" style="mask-type:alpha" maskUnits="userSpaceOnUse" x="95" y="76" width="35" height="35"><path d="M124.584 76.504h-23.939a4.872 4.872 0 0 0-4.872 4.872v23.938a4.872 4.872 0 0 0 4.872 4.872h23.939a4.872 4.872 0 0 0 4.872-4.872V81.376a4.872 4.872 0 0 0-4.872-4.872Z" fill="#7C2852"/></mask><g mask="url(#e)"><path d="M129.456 109.397v-1.447c-1.298-2.228-3.049-4.115-5.157-5.456l-.372-.239c-1.746-1.107-3.706-1.693-5.699-1.693h-11.156c-1.938 0-3.843.567-5.54 1.643l-.443.283c-2.201 1.397-4.007 3.385-5.316 5.733v1.176c0 3.096 2.179 5.601 4.872 5.601h23.939c2.693 0 4.872-2.505 4.872-5.601Z" fill="#FFA100"/></g><path d="M118.673 96.428c-.575 0-1.011-.897-1.011-2.084s.436-2.084 1.011-2.084c.576 0 1.012.897 1.012 2.084s-.436 2.084-1.012 2.084Zm0-3.837c-.317 0-.675.747-.675 1.748 0 1.002.358 1.75.675 1.75.318 0 .676-.748.676-1.75 0-1-.358-1.748-.676-1.748Zm-11.784 3.837c-.576 0-1.011-.897-1.011-2.084s.435-2.084 1.011-2.084c.576 0 1.011.897 1.011 2.084s-.435 2.084-1.011 2.084Zm0-3.837c-.317 0-.675.747-.675 1.748 0 1.002.358 1.75.675 1.75.318 0 .676-.748.676-1.75 0-1-.358-1.748-.676-1.748Z" fill="#fff"/><path d="M119.244 88.543c-.172 0-.294.117-.376.244-.045-1.282-.231-2.283-.517-3.053h-2.226l-2.018-3.154 1.125 3.154h-7.985c-.353.743-.562 1.735-.557 3.044-.082-.122-.204-.23-.368-.23-.367 0-.82.298-.68 2.206.118 1.585.93 2.591 1.505 2.433.195.842.472 1.667.83 2.46a7.005 7.005 0 0 0 1.297 1.925c-.231 1.74-.462 3.136-.462 3.136s.353 3.244 4.094 3.244c3.74 0 4.094-3.244 4.094-3.244s-.267-1.631-.517-3.566c.377-.467.689-.974.921-1.495.367-.82.653-1.677.848-2.556.566.458 1.55-.588 1.677-2.342.141-1.903-.313-2.206-.68-2.206h-.005Z" fill="#F3CFB2"/><path d="M113.323 94.7c-.204 0-.539.176-.539.176s-.34-.177-.54-.177c-.199 0-1.392.09-1.392.09s.635.97 1.932.97a2.39 2.39 0 0 0 1.931-.97s-1.188-.09-1.392-.09Z" fill="#F2606A"/><path d="M112.78 95.352c-1.379 0-1.986-.449-2.009-.467a.125.125 0 0 1-.023-.177.124.124 0 0 1 .177-.022s.571.416 1.859.416 1.855-.412 1.859-.416a.125.125 0 0 1 .177.027.127.127 0 0 1-.023.176c-.027.019-.63.467-2.008.467l-.009-.004Z" fill="#A53139"/><path d="M110.712 89.361a3.775 3.775 0 0 0-.807-.15 3.784 3.784 0 0 0-1.22.1c-.118.095-.231.2-.313.331.154.023.286.045.417.073.118-.028.236-.055.359-.069.04-.004.081-.004.122-.008a.573.573 0 0 0-.05.235c0 .349.295.634.662.634a.649.649 0 0 0 .662-.634.578.578 0 0 0-.013-.127c.018.005.04.01.058.018.114.041.232.073.341.127.136-.013.272 0 .43-.018a1.487 1.487 0 0 0-.263-.367 3.96 3.96 0 0 0-.385-.14v-.005Zm6.166-.05a4.203 4.203 0 0 0-.403-.077 4.095 4.095 0 0 0-.816-.022 3.797 3.797 0 0 0-1.193.29c-.104.108-.19.23-.263.367.159.013.295.004.431.018.109-.055.227-.091.34-.127.018-.005.041-.01.059-.018a.609.609 0 0 0-.014.126c0 .35.295.635.662.635a.648.648 0 0 0 .662-.635.589.589 0 0 0-.05-.235c.041 0 .082 0 .123.009.122.014.24.04.358.068.131-.032.267-.054.417-.073a1.449 1.449 0 0 0-.313-.33v.004Z" fill="#000"/><path fill-rule="evenodd" clip-rule="evenodd" d="M113.441 92.783c.213-.054.621.281.453.39-.168.109-.363.045-.553.113-.304.104-.281.258-.58.267-.304.01-.263-.194-.517-.28-.191-.068-.472.009-.64-.1-.167-.109.146-.453.499-.376.513.113.785.127 1.338-.014Z" fill="#A68569"/><path fill-rule="evenodd" clip-rule="evenodd" d="M113.654 93.162s.081-.104-.014-.145c-.095-.04-.263-.014-.349.014-.086.027-.154.158-.154.158s.322.04.517-.027Zm-1.809 0s-.082-.104.013-.145c.095-.04.263-.014.349.014.086.027.154.158.154.158s-.321.04-.516-.027Z" fill="#1A0F10"/><path d="M113.605 88.533a.363.363 0 0 1 .294-.43c.281-.05.563-.1.844-.145l.607-.096c.204-.027.395-.072.635-.081a2.16 2.16 0 0 1 1.274.371c.345.218.685.449.993.739a6.23 6.23 0 0 1-1.161-.43 1.726 1.726 0 0 0-1.07-.186c-.09.013-.167.031-.272.058l-.299.073-.594.14c-.304.073-.612.14-.92.204a.282.282 0 0 1-.331-.217Zm-1.646 0a.364.364 0 0 0-.295-.43 53.8 53.8 0 0 0-.843-.145l-.608-.096c-.204-.027-.394-.072-.635-.081a2.16 2.16 0 0 0-1.274.371 6.47 6.47 0 0 0-.993.739 6.23 6.23 0 0 0 1.161-.43c.349-.182.712-.24 1.07-.186.091.013.168.031.272.058l.299.073.594.14c.304.073.612.14.921.204a.283.283 0 0 0 .331-.217Z" fill="#FA7598"/><path d="M112.833 98.824c-2.035 0-3.881-1.73-4.711-3.584a13.41 13.41 0 0 1-1.133-4.408l-.299-2.805c-.055.222 0 .694 0 .938l.149 2.275a13.412 13.412 0 0 0 1.134 4.408 6.87 6.87 0 0 0 1.419 2.044h-.005c.676 1.603 2.349 4.68 5.627 5.812 1.778-.892 1.986-2.795 1.986-2.795s-.267-1.631-.517-3.566c0 0-.004 0-.009.005a6.936 6.936 0 0 0 .939-1.522c.077-.173.149-.345.217-.517a.495.495 0 0 0 .032-.09c.059-.15.118-.304.168-.454-.086.227-.181.453-.281.675-.834 1.853-2.68 3.584-4.711 3.584h-.005Zm-6.741-8.794.607-.517s-.789-1.133-.775.661c0 0 .018 1.971.852 2.094 0 0-.671-.626-.684-2.239Zm12.731-.517.608.516c-.018 1.613-.685 2.239-.685 2.239.834-.123.853-2.094.853-2.094.013-1.794-.776-.661-.776-.661Z" fill="#B89D87"/></g><rect x="135.228" y="83.231" width="138.767" height="6.634" rx="3.317" fill="#1D1C1D" fill-opacity=".13"/><rect x="135.228" y="96.498" width="114" height="6" rx="3" fill="#1D1C1D" fill-opacity=".13"/></g><g filter="url(#f)"><rect x="83.263" y="125.865" width="181.885" height="48.118" rx="8.845" fill="#fff" shape-rendering="crispEdges"/><g clip-path="url(#g)"><rect x="96.53" y="134.445" width="30.958" height="30.958" rx="4.815" fill="#DE4E2B"/></g><rect x="134.122" y="139.922" width="54.176" height="6.634" rx="3.317" fill="#1D1C1D" fill-opacity=".13"/><rect x="134.122" y="153.189" width="117.407" height="6.736" rx="3.368" fill="#1D1C1D" fill-opacity=".13"/><path d="M116.802 161.297h-8.624a3.43 3.43 0 0 1-3.427-3.427v-13.047a3.43 3.43 0 0 1 3.427-3.427h5.197c1.039 0 1.979.376 2.709 1.128l3.073 3.14a3.683 3.683 0 0 1 1.073 2.631v9.575a3.43 3.43 0 0 1-3.428 3.427Zm-8.624-1.658h8.624c.973 0 1.769-.796 1.769-1.769v-9.575c0-.586-.188-1.05-.608-1.482l-3.074-3.14c-.409-.42-.895-.619-1.514-.619h-5.197c-.973 0-1.769.796-1.769 1.769v13.047c0 .973.796 1.769 1.769 1.769Zm1.592-2.886c-.552 0-.984-.509-.984-.984 0-.619.619-1.183 1.88-1.769.409-.829.807-1.857 1.061-2.764-.287-.553-.431-1.028-.431-1.426 0-.675.31-1.084.929-1.084.486 0 .829.277.829 1.15 0 .332-.033.708-.155 1.26.354.675.83 1.338 1.283 1.825.332-.033.597-.089.873-.089.841 0 1.228.454 1.228.929 0 .464-.443.995-1.139.995-.42 0-.863-.21-1.36-.63-.752.144-1.559.42-2.278.696-.409.83-.984 1.891-1.736 1.891Zm2.068-2.996c.453-.155.918-.321 1.382-.431a12.664 12.664 0 0 1-.84-1.117c-.144.52-.354 1.039-.542 1.548Z" fill="#fff"/></g><g filter="url(#h)"><rect x="83.263" y="181.982" width="204" height="49" rx="8.845" fill="#fff" shape-rendering="crispEdges"/><g clip-path="url(#i)"><rect x="96.53" y="190.451" width="32.063" height="32.063" rx="3.593" fill="#2F8AB7"/><path d="M124.265 216.91c-.71 2.201-1.797 2.201-2.812 2.372-15.514 3.189-19.035-.45-19.422-.171-1.67-1.321.171-4.061.324-4.393a3.16 3.16 0 0 1-1.051-2.192 3.077 3.077 0 0 1 .305-1.545c-1.257-.898-1.194-3.791.162-4.635 1.213-.764-2.264-4.492 1.572-6.594 4.492-2.515 1.419-4.258 4.492-5.848a4.593 4.593 0 0 1 2.261-.526c.786.02 1.554.241 2.23.643 1.42-.746 3.405-1.357 5.166-.342.593.328 1.123.76 1.563 1.276a3.156 3.156 0 0 1 2.991 2.075 3.116 3.116 0 0 1 0 2.174l.189.09c2.524 1.195-.467 3.225 1.311 4.617 1.95 1.527-1.122 2.057.782 4.492a4.616 4.616 0 0 1-.243 5.21c.522.521.432 2.507.18 3.297Z" fill="#000"/><path d="M113.557 220.287v.162a3.593 3.593 0 0 0 3.593-3.593v-9.433a3.594 3.594 0 0 0-3.593-3.593v.162a3.43 3.43 0 0 0-3.593 3.404v9.523a3.438 3.438 0 0 0 1.084 2.444 3.438 3.438 0 0 0 2.509.924Z" fill="#C76C61"/><path d="m110.314 209.023 1.015 3.593c.521 2.067 2.426 2.803 4.438 2.803h1.375v-6.558l-6.828.162Z" fill="#703D37"/><path d="M109.137 205.124c-.045 4.806 3.243 8.813 8.516 8.696a2.467 2.467 0 0 0 2.246-1.455c.755-1.797 1.797-4.061 1.285-6.019a18.404 18.404 0 0 1-.081-2.614.488.488 0 0 1 0-.108c0-.18-.072-.369-.117-.557-.386-1.734-1.168-3.171-2.407-3.728-.665-.324-1.797-1.168-2.947-1.141a6.493 6.493 0 0 0-6.495 6.926Z" fill="#C76C61"/><path d="M120.879 201.334a7.593 7.593 0 0 1-3.533-.647 7.589 7.589 0 0 1-2.837-2.201 2.766 2.766 0 0 1-1.697 3.027c-2.183 1.141-2.04 2.066-2.273 3.09-.234 1.025-1.725.899-1.725.899s-.494-2.974.494-4.797a6.287 6.287 0 0 1 5.642-3.135c2.65-.036 5.129.952 5.929 3.764Z" fill="#000"/><path d="m106.505 206.446.045.153.045.152a3.076 3.076 0 0 0 1.482 1.86c.123.073.253.136.386.188a3.192 3.192 0 0 0 1.572.18l.414-.09-.97-3.297a1.557 1.557 0 0 0-2.827-.256 1.556 1.556 0 0 0-.147 1.155v-.045Z" fill="#C76C61"/><path d="M107.529 206.292c.072-1.446 1.186-.494 1.186-.494l-.898.386a2 2 0 0 0 .898 1.842c-1.267-.135-1.186-1.734-1.186-1.734Z" fill="#703D37"/><path d="M119.19 209.957s-.315-.413-.656-.315c-.341.099-.225.261-.665 0-.44-.26-.898.261-1.365.36-.467.099.063.413.251.602.169.144.365.253.576.32.211.068.434.094.655.075a.998.998 0 0 0 1.105-.773s.153.09.099-.269Z" fill="#921D21"/><path d="M118.184 210.586c.445.025.888-.088 1.266-.324a.171.171 0 0 0 .011-.215.17.17 0 0 0-.095-.064.163.163 0 0 0-.113.01c-.899.629-2.983-.072-3.001-.081a.172.172 0 0 0-.126.009.174.174 0 0 0-.089.09.168.168 0 0 0 .107.215 7.41 7.41 0 0 0 2.04.36Z" fill="#450709"/><path d="M117.025 208.313s-.252.08-.252-.09c0-.171.566-.422.827-.575a.617.617 0 0 1 .745 0c.225.197.548-.162.755-.126.206.036-.063.62-.261.701-.197.081-.224.206-.476.206-.611.009-.584-.17-1.338-.116Z" fill="#703D37"/><path d="M113.404 204.872c.236-.144.49-.256.755-.333.267-.077.541-.128.817-.152h.369c.156.002.313.017.467.045.14.03.276.078.404.143.13.059.242.152.323.27a1.854 1.854 0 0 0-.763-.117h-.045a.42.42 0 0 1 0 .18.539.539 0 0 1-1.078 0 .487.487 0 0 1 0-.108h-.476a3.371 3.371 0 0 1-.773.072Zm6.477-.549c.194-.027.39-.027.584 0 .201.025.394.092.566.198-.197.053-.377.08-.566.116h-.09c.01.06.01.12 0 .18a.49.49 0 0 1-.115.385.486.486 0 0 1-.846-.385.167.167 0 0 1 0-.063h-.072a3.941 3.941 0 0 1-.575 0c.148-.132.318-.235.503-.305.198-.069.403-.111.611-.126Zm-2.865-.51a.36.36 0 0 0-.279-.413l-.808-.135-.575-.09a5.707 5.707 0 0 0-.611-.081c-.434-.01-.86.112-1.222.351a6.591 6.591 0 0 0-.952.709 5.348 5.348 0 0 0 1.114-.413 1.722 1.722 0 0 1 1.024-.179l.26.062.279.063.575.135.898.198a.26.26 0 0 0 .275-.11.26.26 0 0 0 .04-.097h-.018Zm1.661.126a.152.152 0 0 1-.17-.243 2.695 2.695 0 0 1 1.859-.727c.375.04.73.187 1.024.422a.096.096 0 0 1 .023.115.099.099 0 0 1-.043.045.097.097 0 0 1-.06.011 2.904 2.904 0 0 0-1.043-.135 7.487 7.487 0 0 0-1.59.512Zm-1.509 4.274s.431-.431.701-.314c.413.171-.036.368-.701.314Zm1.312.009s.269-.341.431-.341c.162 0-.036.35-.431.341Z" fill="#000"/><path d="M120.232 219.479s2.29-1.105 3.647 1.563c1.356 2.668 3.916 17.445 2.937 19.7a3.103 3.103 0 0 1-2.176 2.001 3.094 3.094 0 0 1-2.863-.734c-1.851-1.464-4.672-11.759-4.645-15.928.027-4.168 1.878-5.991 3.1-6.602Z" fill="#71A3B0"/><path d="M97.019 226.692a3.163 3.163 0 0 0 3.377 3.378s.998 10.6.791 11.992a2.797 2.797 0 0 0 .835 2.776h20.339a3.899 3.899 0 0 0 1.212-3.234 22.217 22.217 0 0 1-.179-2.928c0-2.39.251-5.579 1.347-7.735 1.096-2.156-.395-5.318-.629-7.186-.233-1.869-.143-3.342-1.437-4.187-1.86-1.203-5.498-3.836-5.498-3.836h-7.186l-9.523 4.187c-1.725.709-3.521 4.105-3.45 6.773Z" fill="#96DAEA"/><path d="M109.991 215.643c.898 2.605 2.219 4.797 3.863 4.797h3.314c1.653 0 .845-2.165-.054-4.779" fill="#C76C61"/><path d="M100.459 220.028a2.697 2.697 0 0 1 2.092.044 2.687 2.687 0 0 1 1.43 1.528c1.177 2.542 2.794 16.457 1.68 18.55a3.23 3.23 0 0 1-5.13 1.042c-1.743-1.428-3.899-11.157-3.593-15.056.305-3.899 2.264-5.569 3.521-6.108Z" fill="#96DAEA"/></g><rect x="135.228" y="196.166" width="138.767" height="7" rx="3.5" fill="#1D1C1D" fill-opacity=".13"/><rect x="135.228" y="209.801" width="138.767" height="7" rx="3.5" fill="#1D1C1D" fill-opacity=".13"/></g></g><defs><clipPath id="a"><path fill="#fff" d="M0 0h288v235H0z"/></clipPath><clipPath id="b"><path fill="#fff" transform="translate(.5 .5)" d="M0 0h112.716v216.822H0z"/></clipPath><clipPath id="d"><rect x="96.53" y="76.834" width="32.063" height="32.063" rx="3.593" fill="#fff"/></clipPath><clipPath id="g"><rect x="96.53" y="134.445" width="30.958" height="30.958" rx="3.44" fill="#fff"/></clipPath><clipPath id="i"><rect x="96.53" y="190.451" width="32.063" height="32.063" rx="3.593" fill="#fff"/></clipPath><filter id="c" x="71.263" y="59.865" width="228" height="74" filterUnits="userSpaceOnUse" color-interpolation-filters="sRGB"><feFlood flood-opacity="0" result="BackgroundImageFix"/><feColorMatrix in="SourceAlpha" values="0 0 0 0 0 0 0 0 0 0 0 0 0 0 0 0 0 0 127 0" result="hardAlpha"/><feOffset dy="4"/><feGaussianBlur stdDeviation="6"/><feComposite in2="hardAlpha" operator="out"/><feColorMatrix values="0 0 0 0 0 0 0 0 0 0 0 0 0 0 0 0 0 0 0.1 0"/><feBlend in2="BackgroundImageFix" result="effect1_dropShadow_15245_116168"/><feBlend in="SourceGraphic" in2="effect1_dropShadow_15245_116168" result="shape"/></filter><filter id="f" x="71.263" y="117.865" width="205.885" height="72.117" filterUnits="userSpaceOnUse" color-interpolation-filters="sRGB"><feFlood flood-opacity="0" result="BackgroundImageFix"/><feColorMatrix in="SourceAlpha" values="0 0 0 0 0 0 0 0 0 0 0 0 0 0 0 0 0 0 127 0" result="hardAlpha"/><feOffset dy="4"/><feGaussianBlur stdDeviation="6"/><feComposite in2="hardAlpha" operator="out"/><feColorMatrix values="0 0 0 0 0 0 0 0 0 0 0 0 0 0 0 0 0 0 0.1 0"/><feBlend in2="BackgroundImageFix" result="effect1_dropShadow_15245_116168"/><feBlend in="SourceGraphic" in2="effect1_dropShadow_15245_116168" result="shape"/></filter><filter id="h" x="71.263" y="173.982" width="228" height="73" filterUnits="userSpaceOnUse" color-interpolation-filters="sRGB"><feFlood flood-opacity="0" result="BackgroundImageFix"/><feColorMatrix in="SourceAlpha" values="0 0 0 0 0 0 0 0 0 0 0 0 0 0 0 0 0 0 127 0" result="hardAlpha"/><feOffset dy="4"/><feGaussianBlur stdDeviation="6"/><feComposite in2="hardAlpha" operator="out"/><feColorMatrix values="0 0 0 0 0 0 0 0 0 0 0 0 0 0 0 0 0 0 0.1 0"/><feBlend in2="BackgroundImageFix" result="effect1_dropShadow_15245_116168"/><feBlend in="SourceGraphic" in2="effect1_dropShadow_15245_116168" result="shape"/></filter></defs></svg>